<svg width="22" height="22" viewBox="0 0 22 22" fill="none" xmlns="http://www.w3.org/2000/svg">
<g id="user (1) 1">
<path id="Vector" d="M17.6049 15.726L14.1021 13.9748C13.7717 13.8094 13.5664 13.4772 13.5664 13.1076V11.8679C13.6504 11.7652 13.7387 11.6483 13.83 11.5192C14.2843 10.8775 14.6484 10.1633 14.9132 9.3929C15.4305 9.15567 15.7664 8.64417 15.7664 8.06667V6.6C15.7664 6.2469 15.6344 5.9048 15.3997 5.6375V3.6872C15.4203 3.48553 15.5009 2.28507 14.6327 1.2947C13.8795 0.4356 12.6574 0 10.9997 0C9.34204 0 8.11994 0.4356 7.36681 1.29433C6.49854 2.2847 6.57921 3.48553 6.59974 3.6872V5.6375C6.36507 5.9048 6.23307 6.2469 6.23307 6.6V8.06667C6.23307 8.5129 6.43584 8.92907 6.78197 9.20663C7.11784 10.5365 7.82074 11.5386 8.06641 11.8602V13.0735C8.06641 13.4284 7.87281 13.754 7.56151 13.9242L4.29047 15.7084C3.22677 16.2888 2.56641 17.4013 2.56641 18.6127V19.8C2.56641 21.5402 8.08291 22 10.9997 22C13.9166 22 19.4331 21.5402 19.4331 19.8V18.6842C19.4331 17.4236 18.7324 16.2899 17.6049 15.726ZM18.6997 19.8C18.6997 20.2976 15.982 21.2667 10.9997 21.2667C6.01747 21.2667 3.29974 20.2976 3.29974 19.8V18.6127C3.29974 17.67 3.81381 16.8036 4.64137 16.3526L7.91241 14.5684C8.45984 14.2696 8.79974 13.6965 8.79974 13.0735V11.5999L8.71431 11.4979C8.70551 11.4873 7.80681 10.4001 7.46397 8.90743L7.43061 8.76223L7.30557 8.68157C7.09327 8.54443 6.96641 8.31453 6.96641 8.06667V6.6C6.96641 6.3943 7.05367 6.20253 7.21207 6.05917L7.33307 5.95027V3.66667L7.32977 3.61863C7.32867 3.60873 7.20401 2.59233 7.91827 1.7776C8.52584 1.0846 9.56277 0.733333 10.9997 0.733333C12.4316 0.733333 13.4663 1.08203 14.0746 1.77027C14.7885 2.5773 14.6704 3.60983 14.6697 3.61863L14.6664 5.95027L14.7874 6.05953C14.9458 6.20253 15.0331 6.3943 15.0331 6.6V8.06667C15.0331 8.38677 14.8233 8.6669 14.5117 8.76297L14.3291 8.81907L14.2704 9.00057C14.0251 9.7636 13.6757 10.4683 13.2313 11.0953C13.1224 11.2497 13.0164 11.3865 12.9244 11.491L12.8331 11.5951V13.1076C12.8331 13.7566 13.1935 14.34 13.7739 14.6304L17.2767 16.3816C18.1545 16.8205 18.6997 17.7027 18.6997 18.6842V19.8Z" fill="#505772"/>
</g>
</svg>
