<svg width="12" height="12" viewBox="0 0 12 12" fill="none" xmlns="http://www.w3.org/2000/svg">
<g id="comment 1" clip-path="url(#clip0_81_441)">
<g id="Speech Bubble 48">
<g id="Group">
<path id="Vector" d="M1.70801 11.2341H0.876552L1.46449 10.6462C1.7815 10.3292 1.97946 9.91687 2.03268 9.46958C1.20546 8.92672 0.600549 8.2125 0.276743 7.39342C-0.0468332 6.57496 -0.0874955 5.67399 0.159165 4.78786C0.45512 3.72461 1.14927 2.75548 2.11371 2.05899C3.16175 1.30216 4.46643 0.9021 5.88674 0.9021C7.67595 0.9021 9.18406 1.41615 10.248 2.38865C11.2064 3.26478 11.7343 4.44656 11.7343 5.71632C11.7343 6.33321 11.6086 6.93346 11.3609 7.50039C11.1046 8.08704 10.7292 8.60941 10.2452 9.05293C9.1799 10.0293 7.67274 10.5453 5.88672 10.5453C5.2237 10.5453 4.53184 10.4568 3.91415 10.2944C3.32947 10.8942 2.53719 11.2341 1.70801 11.2341ZM5.88674 1.5909C3.0388 1.5909 1.29128 3.28933 0.822734 4.97258C0.379972 6.56325 1.03266 8.06629 2.56869 8.99323L2.74031 9.0968L2.73503 9.29718C2.72456 9.69379 2.63001 10.0758 2.46078 10.4211C2.87289 10.2817 3.24684 10.0289 3.53967 9.68293L3.68528 9.51089L3.90122 9.57548C4.50721 9.75672 5.21233 9.85653 5.88674 9.85653C9.43114 9.85653 11.0455 7.71038 11.0455 5.71632C11.0455 4.64234 10.5972 3.6411 9.78321 2.89706C8.84843 2.04257 7.50104 1.5909 5.88674 1.5909Z" fill="white"/>
</g>
</g>
</g>
<defs>
<clipPath id="clip0_81_441">
<rect width="11.7343" height="11.7343" fill="white" transform="translate(0 0.200195)"/>
</clipPath>
</defs>
</svg>
