<svg width="28" height="28" viewBox="0 0 28 28" fill="none" xmlns="http://www.w3.org/2000/svg">
<g id="comment 2" clip-path="url(#clip0_137_2407)">
<g id="Group">
<path id="Vector" d="M24.7672 23.3356C29.3652 18.0322 27.7654 9.78729 21.5119 6.57099C19.7058 3.0737 16.0555 0.677185 11.8558 0.677185C5.86751 0.677185 0.995747 5.54926 0.995747 11.5378C0.995747 14.1743 1.92899 16.6677 3.6393 18.6405L1.22601 21.0221C0.736897 21.5049 1.07572 22.3436 1.76595 22.3469L7.59387 22.3747C9.60219 25.297 12.9199 27.0936 16.5507 27.0936C16.5581 27.0936 26.6346 27.0421 26.6406 27.042C27.3285 27.0387 27.6712 26.2015 27.1805 25.7172L24.7672 23.3356ZM5.2652 18.117C3.5101 16.3587 2.54348 14.0221 2.54348 11.5378C2.54348 6.40274 6.72099 2.22502 11.8558 2.22502C16.9906 2.22502 21.1681 6.40274 21.1681 11.5378C21.1681 16.4586 17.2741 20.8903 11.5538 20.8457L3.64652 20.808L5.26107 19.2146C5.56641 18.9132 5.56821 18.4207 5.2652 18.117ZM16.5507 25.5458C13.8351 25.5458 11.3109 24.3855 9.55627 22.384C12.5025 22.4034 11.7204 22.3985 11.8558 22.3985C18.8418 22.3985 24.0582 15.8455 22.4166 9.00367C26.6972 12.5004 27.0478 18.8984 23.1413 22.8121C22.8382 23.1158 22.8401 23.6084 23.1454 23.9098L24.7599 25.5031C24.7538 25.5031 16.5567 25.5458 16.5507 25.5458Z" fill="white"/>
<path id="Vector_2" d="M7.23773 9.24184H16.5242C16.9517 9.24184 17.2981 8.89533 17.2981 8.46792C17.2981 8.04051 16.9517 7.694 16.5242 7.694H7.23773C6.81033 7.694 6.46387 8.04051 6.46387 8.46792C6.46387 8.89533 6.81038 9.24184 7.23773 9.24184Z" fill="white"/>
<path id="Vector_3" d="M7.23773 12.3375H16.5242C16.9517 12.3375 17.2981 11.991 17.2981 11.5636C17.2981 11.1362 16.9517 10.7897 16.5242 10.7897H7.23773C6.81033 10.7897 6.46387 11.1362 6.46387 11.5636C6.46387 11.991 6.81038 12.3375 7.23773 12.3375Z" fill="white"/>
<path id="Vector_4" d="M7.23773 15.4332H16.5242C16.9517 15.4332 17.2981 15.0867 17.2981 14.6593C17.2981 14.2319 16.9517 13.8853 16.5242 13.8853H7.23773C6.81033 13.8853 6.46387 14.2319 6.46387 14.6593C6.46387 15.0867 6.81038 15.4332 7.23773 15.4332Z" fill="white"/>
</g>
</g>
<defs>
<clipPath id="clip0_137_2407">
<rect width="26.4164" height="26.4164" fill="white" transform="translate(0.995117 0.677185)"/>
</clipPath>
</defs>
</svg>
