<svg width="15" height="15" viewBox="0 0 15 15" fill="none" xmlns="http://www.w3.org/2000/svg">
<g id="like 1" clip-path="url(#clip0_81_196)">
<g id="Group">
<g id="Group_2">
<path id="Vector" d="M11.6164 7.90625L13.1959 7.90625C13.414 7.90625 13.5908 7.72946 13.5908 7.51136L13.5908 1.19338C13.5908 0.975317 13.414 0.798498 13.1959 0.798498L11.6164 0.798498C11.3984 0.798498 11.2216 0.97529 11.2216 1.19338L11.2216 7.51139C11.2216 7.72946 11.3983 7.90625 11.6164 7.90625Z" fill="white"/>
</g>
</g>
<g id="Group_3">
<g id="Group_4">
<path id="Vector_2" d="M1.75225 6.85949C1.8219 7.47205 2.3941 7.90622 3.01061 7.90622L6.08917 7.90622C5.82754 8.37469 5.68711 9.69973 5.69334 10.241C5.70367 11.137 6.44565 11.855 7.34164 11.855L7.66748 11.855C7.88574 11.855 8.06237 11.6784 8.06237 11.4601C8.06237 10.547 8.41793 8.89879 9.0885 8.2282C9.53985 7.77685 9.9257 7.6133 10.4316 7.36044L10.4316 1.43535C9.65703 1.17716 8.67351 0.798437 7.17444 0.798437L4.59136 0.798437C3.74024 0.798437 3.07737 1.58671 3.40717 2.41957C2.9047 2.55646 2.53414 3.01729 2.53414 3.56257C2.53414 3.71645 2.56383 3.86374 2.61743 3.9991C1.77067 4.2298 1.45899 5.27534 2.04669 5.93183C1.83078 6.17305 1.71171 6.50299 1.75225 6.85949Z" fill="white"/>
</g>
</g>
</g>
<defs>
<clipPath id="clip0_81_196">
<rect width="13.4519" height="13.4519" fill="white" transform="translate(14.3936 14.2505) rotate(-180)"/>
</clipPath>
</defs>
</svg>
