<svg width="17" height="17" viewBox="0 0 17 17" fill="none" xmlns="http://www.w3.org/2000/svg">
<g id="eye 2" clip-path="url(#clip0_81_447)">
<g id="Group">
<g id="Group_2">
<path id="Vector" d="M16.0748 8.2586C15.9478 8.44349 12.8943 12.7737 8.06726 12.7737C3.9253 12.7737 0.234452 8.46835 0.0791537 8.28482C-0.0263846 8.15978 -0.0263846 7.97624 0.0791537 7.85053C0.234452 7.667 3.9253 3.36167 8.06726 3.36167C12.2092 3.36167 15.9 7.667 16.0553 7.85053C16.1528 7.96616 16.1616 8.13356 16.0748 8.2586ZM8.06726 4.03395C4.74685 4.03395 1.58978 7.20041 0.787764 8.06766C1.58846 8.93557 4.74216 12.1014 8.06726 12.1014C11.9524 12.1014 14.6947 8.93961 15.3642 8.08581C14.5911 7.24614 11.4159 4.03395 8.06726 4.03395Z" fill="white"/>
</g>
</g>
<g id="Group_3">
<g id="Group_4">
<path id="Vector_2" d="M8.06706 10.7566C6.58401 10.7566 5.37793 9.55051 5.37793 8.06745C5.37793 6.5844 6.58401 5.37832 8.06706 5.37832C9.55011 5.37832 10.7562 6.5844 10.7562 8.06745C10.7562 9.55051 9.55011 10.7566 8.06706 10.7566ZM8.06706 6.05056C6.95511 6.05056 6.0502 6.95547 6.0502 8.06742C6.0502 9.17937 6.95511 10.0843 8.06706 10.0843C9.17901 10.0843 10.0839 9.17937 10.0839 8.06742C10.0839 6.95547 9.17901 6.05056 8.06706 6.05056Z" fill="white"/>
</g>
</g>
</g>
<defs>
<clipPath id="clip0_81_447">
<rect width="16.1346" height="16.1346" fill="white" transform="matrix(1 0 0 -1 0 16.1348)"/>
</clipPath>
</defs>
</svg>
