<svg width="28" height="28" viewBox="0 0 28 28" fill="none" xmlns="http://www.w3.org/2000/svg">
<g id="famous (1) 1" clip-path="url(#clip0_137_2376)">
<g id="XMLID 1469">
<g id="XMLID 180">
<path id="XMLID 181" d="M20.2533 4.49518H20.6144V4.85634C20.6144 5.1413 20.8455 5.37229 21.1304 5.37229C21.4153 5.37229 21.6463 5.1413 21.6463 4.85634V4.49518H22.0075C22.2924 4.49518 22.5234 4.26419 22.5234 3.97923C22.5234 3.69428 22.2924 3.46329 22.0075 3.46329H21.6463V3.10213C21.6463 2.81717 21.4153 2.58618 21.1304 2.58618C20.8455 2.58618 20.6144 2.81717 20.6144 3.10213V3.46329H20.2533C19.9683 3.46329 19.7373 3.69428 19.7373 3.97923C19.7373 4.26419 19.9683 4.49518 20.2533 4.49518Z" fill="white"/>
<path id="XMLID 182" d="M4.43911 17.2375H4.07794V16.8764C4.07794 16.5914 3.8469 16.3604 3.562 16.3604C3.27709 16.3604 3.04605 16.5914 3.04605 16.8764V17.2375H2.68489C2.39999 17.2375 2.16895 17.4685 2.16895 17.7535C2.16895 18.0384 2.39999 18.2694 2.68489 18.2694H3.04605V18.6306C3.04605 18.9155 3.27709 19.1465 3.562 19.1465C3.8469 19.1465 4.07794 18.9155 4.07794 18.6306V18.2694H4.43911C4.72401 18.2694 4.95505 18.0384 4.95505 17.7535C4.95505 17.4685 4.72401 17.2375 4.43911 17.2375Z" fill="white"/>
<path id="XMLID 183" d="M26.1774 18.1146H25.8162V17.7534C25.8162 17.4685 25.5852 17.2375 25.3003 17.2375C25.0154 17.2375 24.7843 17.4685 24.7843 17.7534V18.1146H24.4232C24.1383 18.1146 23.9072 18.3456 23.9072 18.6305C23.9072 18.9155 24.1383 19.1465 24.4232 19.1465H24.7843V19.5076C24.7843 19.7926 25.0154 20.0236 25.3003 20.0236C25.5852 20.0236 25.8162 19.7926 25.8162 19.5076V19.1465H26.1774C26.4623 19.1465 26.6933 18.9155 26.6933 18.6305C26.6933 18.3456 26.4623 18.1146 26.1774 18.1146Z" fill="white"/>
<path id="XMLID 186" d="M20.5981 16.0304L25.7652 12.2934C26.5633 11.7163 26.883 10.7379 26.5796 9.80081C26.2763 8.8638 25.4438 8.25834 24.4589 8.25834H18.0811L16.1293 2.22058C15.8262 1.28301 14.9938 0.677185 14.0084 0.677185C13.0231 0.677185 12.1906 1.28301 11.8875 2.22058L9.93579 8.25829H3.55783C2.57294 8.25829 1.74051 8.86375 1.43719 9.80076C1.13381 10.7378 1.45349 11.7162 2.25156 12.2934L7.4187 16.0303L5.44113 22.072C5.07466 23.1916 5.61883 24.1746 6.38712 24.6594V26.5777C6.38712 26.8626 6.61816 27.0936 6.90307 27.0936H11.6867C11.9716 27.0936 12.2026 26.8626 12.2026 26.5777C12.2026 26.2927 11.9716 26.0617 11.6867 26.0617H7.41901V24.4537C7.41901 22.896 8.68633 21.6287 10.244 21.6287H12.1999L13.5388 24.5695C13.6226 24.7535 13.8062 24.8716 14.0084 24.8716C14.2106 24.8716 14.3942 24.7535 14.478 24.5695L15.817 21.6287H17.7729C19.3305 21.6287 20.5979 22.896 20.5979 24.4536V26.0617H16.3302C16.0453 26.0617 15.8142 26.2927 15.8142 26.5777C15.8142 26.8626 16.0453 27.0936 16.3302 27.0936H21.1138C21.3987 27.0936 21.6298 26.8626 21.6298 26.5777V24.6594C22.398 24.1746 22.9422 23.1916 22.5757 22.072L20.5981 16.0304ZM11.5713 15.8337H15.1453C15.6141 15.8337 16.0563 15.7179 16.4455 15.5145V16.6721C16.4455 18.2477 15.4206 19.3913 14.0085 19.3913C12.6646 19.3913 11.5714 18.298 11.5714 16.9541V15.8337H11.5713ZM16.9307 13.0164C16.9307 14.0009 16.1298 14.8018 15.1453 14.8018H11.5713V14.0329C11.5713 13.0483 12.3722 12.2474 13.3567 12.2474H16.9307V13.0164ZM14.0084 23.1106L13.0478 21.0009V20.2868C13.3531 20.375 13.6752 20.4232 14.0084 20.4232C14.3444 20.4232 14.666 20.3756 14.969 20.2878V21.0009L14.0084 23.1106ZM21.4808 23.3948C21.0193 21.7815 19.5323 20.5968 17.7729 20.5968H16.0009V19.7806C16.9055 19.1177 17.4774 17.9959 17.4774 16.6721V14.5952C17.7835 14.1446 17.9626 13.601 17.9626 13.0163V11.7314C17.9626 11.4465 17.7315 11.2155 17.4466 11.2155H13.3567C11.8032 11.2155 10.5394 12.4793 10.5394 14.0328V16.9541C10.5394 18.1257 11.1239 19.1628 12.0159 19.7912V20.5967H10.2439C8.48444 20.5967 6.99743 21.7815 6.53602 23.3948C6.3638 23.1238 6.29642 22.7759 6.42179 22.3929L8.51658 15.9934C8.58639 15.7802 8.51039 15.5463 8.32857 15.4148L2.85635 11.4573C2.33612 11.0811 2.28933 10.5191 2.41893 10.1186C2.54854 9.71815 2.91584 9.29023 3.55783 9.29023H10.3112C10.5351 9.29023 10.7333 9.14592 10.8022 8.93299L12.8694 2.53805C13.0669 1.92686 13.5873 1.70908 14.0084 1.70908C14.4295 1.70908 14.9499 1.92686 15.1475 2.53794L17.2146 8.93293C17.2835 9.14587 17.4818 9.29018 17.7056 9.29018H24.459C25.101 9.29018 25.4683 9.7181 25.5979 10.1186C25.7275 10.5191 25.6807 11.081 25.1605 11.4573L19.6882 15.4149C19.5064 15.5463 19.4304 15.7803 19.5002 15.9934L21.595 22.393C21.7203 22.7759 21.653 23.1239 21.4808 23.3948Z" fill="white"/>
<path id="XMLID 192" d="M14.0097 26.0616C13.8741 26.0616 13.7411 26.1168 13.6452 26.2127C13.5493 26.3086 13.4941 26.4416 13.4941 26.5772C13.4941 26.7127 13.5493 26.8457 13.6452 26.9416C13.7411 27.0375 13.8741 27.0927 14.0097 27.0927C14.1453 27.0927 14.2783 27.0375 14.3741 26.9416C14.47 26.8457 14.5252 26.7127 14.5252 26.5772C14.5252 26.4416 14.4701 26.3086 14.3741 26.2127C14.2783 26.1168 14.1453 26.0616 14.0097 26.0616Z" fill="white"/>
</g>
</g>
</g>
<defs>
<clipPath id="clip0_137_2376">
<rect width="26.4164" height="26.4164" fill="white" transform="translate(0.801758 0.677185)"/>
</clipPath>
</defs>
</svg>
