<svg width="28" height="28" viewBox="0 0 28 28" fill="none" xmlns="http://www.w3.org/2000/svg">
<g id="film 1" clip-path="url(#clip0_137_2386)">
<path id="Vector" d="M24.9717 1.70908C24.6868 1.70908 24.4558 1.94004 24.4558 2.22502V2.93767H23.2272V2.22502C23.2272 1.94004 22.996 1.70908 22.7113 1.70908C22.4263 1.70908 22.1953 1.94004 22.1953 2.22502V3.45362C22.1953 3.7386 22.4263 3.96956 22.7113 3.96956H24.9717C25.2565 3.96956 25.4877 3.7386 25.4877 3.45362V2.22502C25.4877 1.94004 25.2565 1.70908 24.9717 1.70908Z" fill="white"/>
<path id="Vector_2" d="M24.9717 12.2392H22.7113C22.4263 12.2392 22.1953 12.4702 22.1953 12.7551V15.0156C22.1953 15.3006 22.4263 15.5316 22.7113 15.5316H24.9717C25.2565 15.5316 25.4877 15.3006 25.4877 15.0156V12.7551C25.4877 12.4702 25.2565 12.2392 24.9717 12.2392ZM24.4558 14.4997H23.2272V13.2711H24.4558V14.4997Z" fill="white"/>
<path id="Vector_3" d="M24.9717 6.45819H22.7113C22.4263 6.45819 22.1953 6.68916 22.1953 6.97414V9.23462C22.1953 9.5196 22.4263 9.75057 22.7113 9.75057H24.9717C25.2565 9.75057 25.4877 9.5196 25.4877 9.23462V6.97414C25.4877 6.68916 25.2565 6.45819 24.9717 6.45819ZM24.4558 8.71868H23.2272V7.49008H24.4558V8.71868Z" fill="white"/>
<path id="Vector_4" d="M24.9717 18.0202H22.7113C22.4263 18.0202 22.1953 18.2511 22.1953 18.5361V20.7966C22.1953 21.0816 22.4263 21.3125 22.7113 21.3125H24.9717C25.2565 21.3125 25.4877 21.0816 25.4877 20.7966V18.5361C25.4877 18.2511 25.2565 18.0202 24.9717 18.0202ZM24.4558 20.2807H23.2272V19.0521H24.4558V20.2807Z" fill="white"/>
<path id="Vector_5" d="M24.9717 23.8012H22.7113C22.4263 23.8012 22.1953 24.0321 22.1953 24.3171V25.5457C22.1953 25.8307 22.4263 26.0617 22.7113 26.0617C22.996 26.0617 23.2272 25.8307 23.2272 25.5457V24.8331H24.4558V25.5457C24.4558 25.8307 24.6868 26.0617 24.9717 26.0617C25.2565 26.0617 25.4877 25.8307 25.4877 25.5457V24.3171C25.4877 24.0321 25.2565 23.8012 24.9717 23.8012Z" fill="white"/>
<path id="Vector_6" d="M5.46706 1.70908C5.18208 1.70908 4.95112 1.94004 4.95112 2.22502V2.93767H3.72232V2.22502C3.72232 1.94004 3.49135 1.70908 3.20638 1.70908C2.9216 1.70908 2.69043 1.94004 2.69043 2.22502V3.45362C2.69043 3.7386 2.9216 3.96956 3.20638 3.96956H5.46706C5.75184 3.96956 5.98301 3.7386 5.98301 3.45362V2.22502C5.98301 1.94004 5.75184 1.70908 5.46706 1.70908Z" fill="white"/>
<path id="Vector_7" d="M5.46706 12.2392H3.20638C2.9216 12.2392 2.69043 12.4702 2.69043 12.7551V15.0156C2.69043 15.3006 2.9216 15.5316 3.20638 15.5316H5.46706C5.75184 15.5316 5.98301 15.3006 5.98301 15.0156V12.7551C5.98301 12.4702 5.75184 12.2392 5.46706 12.2392ZM4.95112 14.4997H3.72232V13.2711H4.95112V14.4997Z" fill="white"/>
<path id="Vector_8" d="M5.46706 6.45819H3.20638C2.9216 6.45819 2.69043 6.68916 2.69043 6.97414V9.23462C2.69043 9.5196 2.9216 9.75057 3.20638 9.75057H5.46706C5.75184 9.75057 5.98301 9.5196 5.98301 9.23462V6.97414C5.98301 6.68916 5.75184 6.45819 5.46706 6.45819ZM4.95112 8.71868H3.72232V7.49008H4.95112V8.71868Z" fill="white"/>
<path id="Vector_9" d="M5.46706 18.0202H3.20638C2.9216 18.0202 2.69043 18.2511 2.69043 18.5361V20.7966C2.69043 21.0816 2.9216 21.3125 3.20638 21.3125H5.46706C5.75184 21.3125 5.98301 21.0816 5.98301 20.7966V18.5361C5.98301 18.2511 5.75184 18.0202 5.46706 18.0202ZM4.95112 20.2807H3.72232V19.0521H4.95112V20.2807Z" fill="white"/>
<path id="Vector_10" d="M5.46706 23.8012H3.20638C2.9216 23.8012 2.69043 24.0321 2.69043 24.3171V25.5457C2.69043 25.8307 2.9216 26.0617 3.20638 26.0617C3.49135 26.0617 3.72232 25.8307 3.72232 25.5457V24.8331H4.95112V25.5457C4.95112 25.8307 5.18208 26.0617 5.46706 26.0617C5.75184 26.0617 5.98301 25.8307 5.98301 25.5457V24.3171C5.98301 24.0321 5.75184 23.8012 5.46706 23.8012Z" fill="white"/>
<path id="Vector_11" d="M8.18237 21.8777H19.7621C20.5697 21.8777 21.2265 21.2209 21.2265 20.4133V11.526C21.2265 11.241 20.9956 11.01 20.7106 11.01C20.4258 11.01 20.1946 11.241 20.1946 11.526V20.4133C20.1946 20.6518 20.0008 20.8458 19.7621 20.8458H8.18237C7.94375 20.8458 7.74966 20.6518 7.74966 20.4133V7.3575C7.74966 7.11907 7.94375 6.92499 8.18237 6.92499H19.7621C20.0008 6.92499 20.1946 7.11907 20.1946 7.3575V7.40849C20.1946 7.69347 20.4258 7.92443 20.7106 7.92443C20.9956 7.92443 21.2265 7.69347 21.2265 7.40849V7.3575C21.2265 6.54992 20.5697 5.8931 19.7621 5.8931H8.18237C7.3748 5.8931 6.71777 6.54992 6.71777 7.3575V20.4133C6.71777 21.2209 7.3748 21.8777 8.18237 21.8777Z" fill="white"/>
<path id="Vector_12" d="M20.8918 1.70908C20.6068 1.70908 20.3758 1.94004 20.3758 2.22502V2.50516C20.3758 2.74379 20.1817 2.93767 19.9433 2.93767H8.18237C7.94375 2.93767 7.74966 2.74379 7.74966 2.50516V2.22502C7.74966 1.94004 7.5187 1.70908 7.23372 1.70908C6.94894 1.70908 6.71777 1.94004 6.71777 2.22502V2.50516C6.71777 3.31274 7.3748 3.96956 8.18237 3.96956H19.9433C20.7507 3.96956 21.4077 3.31274 21.4077 2.50516V2.22502C21.4077 1.94004 21.1767 1.70908 20.8918 1.70908Z" fill="white"/>
<path id="Vector_13" d="M19.9433 23.8012H8.18237C7.3748 23.8012 6.71777 24.458 6.71777 25.2656V25.5457C6.71777 25.8307 6.94894 26.0617 7.23372 26.0617C7.5187 26.0617 7.74966 25.8307 7.74966 25.5457V25.2656C7.74966 25.027 7.94375 24.8331 8.18237 24.8331H19.9433C20.1817 24.8331 20.3758 25.027 20.3758 25.2656V25.5457C20.3758 25.8307 20.6068 26.0617 20.8918 26.0617C21.1767 26.0617 21.4077 25.8307 21.4077 25.5457V25.2656C21.4077 24.458 20.7507 23.8012 19.9433 23.8012Z" fill="white"/>
<path id="Vector_14" d="M1.41438 23.7677C1.1294 23.7677 0.898438 23.9987 0.898438 24.2837V25.5457C0.898438 25.8307 1.1294 26.0617 1.41438 26.0617C1.69936 26.0617 1.93033 25.8307 1.93033 25.5457V24.2837C1.93033 23.9987 1.69936 23.7677 1.41438 23.7677Z" fill="white"/>
<path id="Vector_15" d="M1.41438 1.70825C1.1294 1.70825 0.898438 1.93922 0.898438 2.2242V19.9314C0.898438 20.2164 1.1294 20.4474 1.41438 20.4474C1.69936 20.4474 1.93033 20.2164 1.93033 19.9314V2.2242C1.93033 1.93922 1.69936 1.70825 1.41438 1.70825Z" fill="white"/>
<path id="Vector_16" d="M26.7991 1.70908C26.5142 1.70908 26.2832 1.94004 26.2832 2.22502V25.5458C26.2832 25.8307 26.5142 26.0617 26.7991 26.0617C27.0841 26.0617 27.3151 25.8307 27.3151 25.5458V2.22502C27.3151 1.94004 27.0841 1.70908 26.7991 1.70908Z" fill="white"/>
<path id="Vector_17" d="M1.89024 21.9645C1.80465 21.7593 1.59058 21.628 1.36846 21.6481C1.15539 21.6675 0.972136 21.8217 0.916554 22.0283C0.861778 22.2327 0.941123 22.4581 1.11411 22.5807C1.29052 22.7058 1.52916 22.7078 1.70739 22.5856C1.90595 22.4494 1.98107 22.1862 1.89024 21.9645Z" fill="white"/>
<path id="Vector_18" d="M21.1382 9.09065C21.0154 8.90658 20.7812 8.82059 20.5683 8.88161C20.3635 8.94021 20.2143 9.12287 20.1961 9.33492C20.1772 9.55564 20.3087 9.76891 20.5129 9.85309C20.7081 9.93384 20.9409 9.8847 21.0855 9.73004C21.2486 9.55564 21.2685 9.28941 21.1382 9.09065Z" fill="white"/>
</g>
<defs>
<clipPath id="clip0_137_2386">
<rect width="26.4164" height="26.4164" fill="white" transform="translate(0.898438 0.677185)"/>
</clipPath>
</defs>
</svg>
