<svg width="27" height="28" viewBox="0 0 27 28" fill="none" xmlns="http://www.w3.org/2000/svg">
<g id="friend (1)" clip-path="url(#clip0_137_2452)">
<path id="Vector" d="M21.596 12.4805C23.1706 11.4541 24.2138 9.67789 24.2138 7.66208C24.2138 4.49284 21.6355 1.91452 18.4662 1.91452C16.3448 1.91452 14.4882 3.06996 13.4924 4.78447C12.4966 3.06996 10.6402 1.91452 8.51875 1.91452C5.34952 1.91452 2.771 4.49284 2.771 7.66208C2.771 9.67789 3.81418 11.4541 5.38882 12.4805C2.39613 13.715 0.28418 16.6635 0.28418 20.0966V22.9978C0.28418 24.5674 1.56115 25.8441 3.13055 25.8441H23.8542C25.4238 25.8441 26.7006 24.5674 26.7006 22.998V20.0966C26.7006 16.6635 24.5886 13.715 21.596 12.4805ZM18.4662 3.46236C20.7819 3.46236 22.6659 5.34637 22.6659 7.66208C22.6659 9.97799 20.7819 11.862 18.4662 11.862C16.1503 11.862 14.2663 9.97799 14.2663 7.66208C14.2663 5.34637 16.1503 3.46236 18.4662 3.46236ZM13.4896 13.5362C12.9277 13.1093 12.3097 12.7532 11.6487 12.4805C12.4047 11.9878 13.0381 11.3221 13.4924 10.5401C13.9465 11.3217 14.5795 11.987 15.3349 12.4797C14.6801 12.749 14.0597 13.1033 13.4896 13.5362ZM4.31883 7.66208C4.31883 5.34637 6.20284 3.46236 8.51875 3.46236C10.8345 3.46236 12.7185 5.34637 12.7185 7.66208C12.7185 9.97799 10.8345 11.862 8.51875 11.862C6.20284 11.862 4.31883 9.97799 4.31883 7.66208ZM13.0778 24.2963H3.13055C2.41447 24.2963 1.83202 23.7138 1.83202 22.998V20.0966C1.83202 16.4094 4.83176 13.4098 8.51875 13.4098C12.2058 13.4098 15.2055 16.4096 15.2055 20.0966V22.998C15.2055 23.7138 14.6228 24.2963 13.907 24.2963H13.0778ZM25.1528 22.998C25.1528 23.7138 24.5703 24.2963 23.8542 24.2963H16.4385C16.6393 23.9067 16.7533 23.4655 16.7533 22.998V20.0966C16.7533 17.9889 15.9568 16.0637 14.6498 14.6058C15.7644 13.8302 17.0927 13.4098 18.4662 13.4098C22.1532 13.4098 25.1528 16.4094 25.1528 20.0966V22.998Z" fill="white"/>
</g>
<defs>
<clipPath id="clip0_137_2452">
<rect width="26.4164" height="26.4164" fill="white" transform="translate(0.28418 0.677185)"/>
</clipPath>
</defs>
</svg>
