<svg width="22" height="22" viewBox="0 0 22 22" xmlns="http://www.w3.org/2000/svg">
<g id="heart 1" clip-path="url(#clip0_122_1428)">
<path id="Vector" d="M20.1972 3.36754C19.0787 2.15445 17.544 1.48633 15.8755 1.48633C14.6282 1.48633 13.486 1.88064 12.4805 2.65821C11.9731 3.05071 11.5133 3.5309 11.108 4.09137C10.7028 3.53107 10.2429 3.05071 9.73531 2.65821C8.72992 1.88064 7.58771 1.48633 6.34049 1.48633C4.67193 1.48633 3.13706 2.15445 2.01858 3.36754C0.91346 4.56646 0.304688 6.20436 0.304688 7.97974C0.304688 9.80705 0.985663 11.4797 2.44767 13.2439C3.75555 14.822 5.63528 16.4239 7.81206 18.2789C8.55535 18.9124 9.39787 19.6305 10.2727 20.3954C10.5038 20.5978 10.8004 20.7092 11.108 20.7092C11.4154 20.7092 11.7121 20.5978 11.9429 20.3957C12.8177 19.6307 13.6608 18.9123 14.4044 18.2784C16.5808 16.4238 18.4606 14.822 19.7684 13.2437C21.2305 11.4797 21.9113 9.80705 21.9113 7.97958C21.9113 6.20436 21.3025 4.56646 20.1972 3.36754Z" />
</g>
<defs>
<clipPath id="clip0_122_1428">
<rect width="21.6066" height="21.6066" transform="translate(0.304688 0.304688)"/>
</clipPath>
</defs>
</svg>
