<svg width="27" height="28" viewBox="0 0 27 28" fill="none" xmlns="http://www.w3.org/2000/svg">
<g id="home-run (1) 1" clip-path="url(#clip0_137_2456)">
<path id="Vector" d="M26.1381 12.1144C26.1372 12.1138 26.1366 12.113 26.136 12.1124L15.3602 1.33696C14.9009 0.877447 14.2902 0.624512 13.6406 0.624512C12.9911 0.624512 12.3804 0.877447 11.9209 1.33696L1.15071 12.1069C1.14708 12.1106 1.14325 12.1144 1.13982 12.118C0.196608 13.0667 0.19822 14.6059 1.14446 15.5521C1.57677 15.9846 2.14753 16.2349 2.758 16.2613C2.78299 16.2637 2.80798 16.265 2.83318 16.265H3.26246V24.1948C3.26246 25.7642 4.53943 27.041 6.10883 27.041H10.3247C10.7522 27.041 11.0986 26.6943 11.0986 26.2671V20.0499C11.0986 19.3338 11.6813 18.7514 12.3973 18.7514H14.884C15.6 18.7514 16.1825 19.3338 16.1825 20.0499V26.2671C16.1825 26.6943 16.5289 27.041 16.9564 27.041H21.1723C22.7419 27.041 24.0186 25.7642 24.0186 24.1948V16.265H24.4169C25.0663 16.265 25.6769 16.012 26.1366 15.5523C27.0839 14.6047 27.0843 13.0627 26.1381 12.1144ZM25.0421 14.4579C24.875 14.625 24.6529 14.7171 24.4169 14.7171H23.2447C22.8172 14.7171 22.4708 15.0636 22.4708 15.491V24.1948C22.4708 24.9107 21.8883 25.4931 21.1723 25.4931H17.7303V20.0499C17.7303 18.4805 16.4536 17.2035 14.884 17.2035H12.3973C10.8277 17.2035 9.55076 18.4805 9.55076 20.0499V25.4931H6.10883C5.39296 25.4931 4.8103 24.9107 4.8103 24.1948V15.491C4.8103 15.0636 4.46385 14.7171 4.03638 14.7171H2.88437C2.87228 14.7163 2.86038 14.7157 2.84809 14.7155C2.61753 14.7115 2.40127 14.62 2.23923 14.4577C1.8946 14.1131 1.8946 13.5522 2.23923 13.2074C2.23943 13.2074 2.23943 13.2072 2.23964 13.207L2.24024 13.2064L13.0157 2.43133C13.1825 2.26426 13.4044 2.17235 13.6406 2.17235C13.8767 2.17235 14.0986 2.26426 14.2656 2.43133L25.0386 13.2041C25.0403 13.2058 25.0421 13.2074 25.0437 13.209C25.3865 13.5542 25.3859 14.1139 25.0421 14.4579Z" fill="white"/>
</g>
<defs>
<clipPath id="clip0_137_2456">
<rect width="26.4164" height="26.4164" fill="white" transform="translate(0.380859 0.677185)"/>
</clipPath>
</defs>
</svg>
