<svg width="27" height="28" viewBox="0 0 27 28" fill="none" xmlns="http://www.w3.org/2000/svg">
<g id="review (1) 1" clip-path="url(#clip0_137_2415)">
<path id="Vector" d="M1.14229 26.6332H4.95994C5.207 26.6332 5.40691 26.4332 5.40691 26.1862V26.0009H6.71729C7.25244 26 7.77494 26.1628 8.21471 26.4677C8.80377 26.8769 9.50436 27.0954 10.2215 27.0935H12.9545C14.3875 27.0919 15.5488 25.9304 15.5506 24.4974V19.5943C15.5475 18.1624 14.3864 17.0028 12.9545 17.0017H12.0382C12.1155 16.7909 12.155 16.5681 12.1552 16.3433V14.1245C12.1548 13.633 11.9553 13.1629 11.6026 12.8207C11.2497 12.4787 10.7735 12.2941 10.2822 12.3087C9.28916 12.3626 8.5135 13.1874 8.5207 14.1817V14.3218C8.52288 15.4389 7.91287 16.467 6.93183 17.0007H5.40691V16.8154C5.40691 16.5685 5.207 16.3684 4.95994 16.3684H1.14229C0.895449 16.3684 0.695312 16.5685 0.695312 16.8154V26.186C0.695312 26.433 0.895449 26.6332 1.14229 26.6332ZM7.04249 17.8948C7.11233 17.8946 7.18129 17.8782 7.24371 17.8466C8.57701 17.1783 9.41793 15.8134 9.41487 14.3218V14.1817C9.40374 13.6691 9.79725 13.238 10.3088 13.2022C10.5596 13.195 10.8025 13.2895 10.9824 13.4643C11.1613 13.6372 11.2621 13.8757 11.2615 14.1245V16.3424C11.2606 16.5838 11.1742 16.8171 11.0173 17.0007H9.82606C9.57922 17.0007 9.37908 17.2008 9.37908 17.4476C9.37908 17.6945 9.57922 17.8946 9.82606 17.8946H12.9549C13.8934 17.895 14.6546 18.6546 14.657 19.593V24.4971C14.6559 25.4367 13.8945 26.1982 12.9549 26.1993H10.2207C9.6855 26.2004 9.16279 26.0373 8.72345 25.7318C8.13418 25.3234 7.43425 25.105 6.71729 25.1058H5.40757V17.8946L7.04249 17.8948ZM1.58927 17.2626H4.51296V25.7392H1.58927V17.2626Z" fill="white"/>
<path id="Vector_2" d="M3.53877 23.0087C3.29193 23.0087 3.0918 23.2089 3.0918 23.4557V24.5849C3.0918 24.832 3.29193 25.0319 3.53877 25.0319C3.78561 25.0319 3.98575 24.832 3.98575 24.5849V23.4557C3.98575 23.2089 3.78561 23.0087 3.53877 23.0087Z" fill="white"/>
<path id="Vector_3" d="M13.6662 10.7697H14.5826C14.5051 10.9806 14.4656 11.2034 14.4654 11.4282V13.6461C14.4665 14.6505 15.2817 15.4639 16.2863 15.4628H16.3385C17.3317 15.4089 18.1072 14.5843 18.1002 13.5898V13.4497C18.0973 12.3324 18.7071 11.3036 19.6884 10.7697H21.2135V10.955C21.2135 11.2019 21.4137 11.402 21.6605 11.402H25.4781C25.725 11.402 25.9251 11.2019 25.9251 10.955V1.584C25.9251 1.33716 25.725 1.13703 25.4781 1.13703H21.6605C21.4137 1.13703 21.2135 1.33716 21.2135 1.584V1.76952H19.9031C19.3682 1.77039 18.8457 1.60736 18.4057 1.30268C17.8169 0.893459 17.1163 0.67499 16.3991 0.676954H13.6662C12.2336 0.678482 11.0723 1.83936 11.0703 3.27218V8.17606C11.0725 9.60844 12.2338 10.7687 13.6662 10.7697ZM22.1077 2.0312H25.0314V10.5081H22.1075V2.03098L22.1077 2.0312ZM11.9643 3.27218C11.9656 2.33282 12.7271 1.572 13.6662 1.57091H16.3998C16.9349 1.5696 17.4576 1.73285 17.8972 2.0384C18.4865 2.44675 19.1864 2.66522 19.9034 2.66413H21.2131V9.87579H19.578C19.5081 9.87601 19.4391 9.89238 19.3769 9.92403C18.0434 10.5923 17.2027 11.957 17.2056 13.4486V13.5887C17.2169 14.1013 16.8234 14.5324 16.3116 14.5682C16.0621 14.5756 15.8199 14.482 15.6405 14.3083C15.4611 14.1345 15.3596 13.8955 15.3589 13.6459V11.428C15.3598 11.1864 15.4465 10.9533 15.6032 10.7697H16.7944C17.0412 10.7697 17.2414 10.5696 17.2414 10.3228C17.2414 10.0759 17.0412 9.87579 16.7944 9.87579H13.6655C12.7271 9.87536 11.9658 9.11584 11.9636 8.17715L11.9643 3.27218Z" fill="white"/>
<path id="Vector_4" d="M23.0808 4.76217C23.3278 4.76217 23.5278 4.56203 23.5278 4.31519V3.18575C23.5278 2.93891 23.3278 2.73877 23.0808 2.73877C22.8339 2.73877 22.6338 2.93891 22.6338 3.18575V4.31519C22.6338 4.56203 22.8339 4.76217 23.0808 4.76217Z" fill="white"/>
</g>
<defs>
<clipPath id="clip0_137_2415">
<rect width="26.4164" height="26.4164" fill="white" transform="translate(0.0917969 0.677185)"/>
</clipPath>
</defs>
</svg>
