<svg width="15" height="14" viewBox="0 0 15 14" fill="none" xmlns="http://www.w3.org/2000/svg">
<g id="like 1" clip-path="url(#clip0_81_205)">
<g id="Group">
<g id="Group_2">
<path id="Vector" d="M3.50566 6.55322H1.92614C1.70807 6.55322 1.53125 6.73001 1.53125 6.94811V13.2661C1.53125 13.4842 1.70804 13.661 1.92614 13.661H3.50563C3.7237 13.661 3.90052 13.4842 3.90052 13.2661V6.94808C3.90052 6.73002 3.72375 6.55322 3.50566 6.55322Z" fill="white"/>
</g>
</g>
<g id="Group_3">
<g id="Group_4">
<path id="Vector_2" d="M13.3698 7.59998C13.3002 6.98742 12.728 6.55326 12.1115 6.55326H9.0329C9.29453 6.08478 9.43496 4.75974 9.42873 4.21846C9.41841 3.32249 8.67642 2.60449 7.78043 2.60449H7.45459C7.23633 2.60449 7.0597 2.7811 7.0597 2.99938C7.0597 3.91251 6.70414 5.56068 6.03357 6.23128C5.58222 6.68263 5.19637 6.84618 4.69043 7.09903V13.0241C5.46504 13.2823 6.44856 13.661 7.94763 13.661H10.5307C11.3818 13.661 12.0447 12.8728 11.7149 12.0399C12.2174 11.903 12.5879 11.4422 12.5879 10.8969C12.5879 10.743 12.5582 10.5957 12.5046 10.4604C13.3514 10.2297 13.6631 9.18413 13.0754 8.52764C13.2913 8.28642 13.4104 7.95648 13.3698 7.59998Z" fill="white"/>
</g>
</g>
</g>
<defs>
<clipPath id="clip0_81_205">
<rect width="13.4519" height="13.4519" fill="white" transform="translate(0.728516 0.208984)"/>
</clipPath>
</defs>
</svg>
