<svg width="16" height="16" viewBox="0 0 16 16" fill="none" xmlns="http://www.w3.org/2000/svg">
<g id="play 1" clip-path="url(#clip0_122_1460)">
<g id="Group">
<g id="Group_2">
<path id="Vector" d="M13.8709 6.15374L4.42087 0.328572C3.73718 -0.0923355 2.91059 -0.109836 2.20968 0.281759C1.50877 0.673291 1.09033 1.38645 1.09033 2.18929V13.7866C1.09033 15.0005 2.06846 15.9934 3.27065 16C3.27393 16 3.27721 16 3.28043 16C3.65612 16 4.04762 15.8822 4.41328 15.6591C4.70743 15.4796 4.8004 15.0957 4.62093 14.8016C4.44146 14.5074 4.05746 14.4144 3.7634 14.5939C3.59237 14.6982 3.42534 14.7522 3.27737 14.7522C2.82377 14.7497 2.33812 14.3611 2.33812 13.7866V2.18933C2.33812 1.84492 2.51762 1.53907 2.81824 1.3711C3.1189 1.20314 3.47343 1.21064 3.76634 1.39098L13.2164 7.21615C13.5004 7.39102 13.6629 7.68262 13.6623 8.01618C13.6616 8.34971 13.4979 8.64065 13.2123 8.81493L6.37984 12.9983C6.08597 13.1783 5.99359 13.5623 6.17353 13.8562C6.35344 14.1501 6.73753 14.2424 7.03141 14.0625L13.863 9.87962C14.5171 9.48059 14.9085 8.78496 14.9101 8.01868C14.9117 7.25249 14.523 6.55524 13.8709 6.15374Z" fill="white"/>
</g>
</g>
</g>
<defs>
<clipPath id="clip0_122_1460">
<rect width="16" height="16" fill="white"/>
</clipPath>
</defs>
</svg>
