<svg width="27" height="28" viewBox="0 0 27 28" fill="none" xmlns="http://www.w3.org/2000/svg">
<g id="review 1" clip-path="url(#clip0_137_2422)">
<g id="Group">
<g id="Group_2">
<path id="Vector" d="M6.5788 4.37399H5.63999C5.7812 3.32852 6.35927 3.276 6.62529 3.2518C6.89105 3.22761 7.09449 3.00482 7.09449 2.73797V1.19401C7.09449 1.05217 7.03608 0.916529 6.933 0.819067C6.82991 0.721605 6.69112 0.671094 6.5496 0.678885C4.91869 0.77062 2.97461 1.59407 2.97461 4.99611V7.68109C2.97461 8.1293 3.33923 8.49392 3.78743 8.49392H6.57885C7.02705 8.49392 7.39167 8.12924 7.39162 7.68104V5.18681C7.39162 4.7386 7.027 4.37399 6.5788 4.37399ZM6.35978 7.46197H4.0065V4.99611C4.0065 2.62225 5.06218 1.95926 6.0626 1.77212V2.31459C5.37169 2.52489 4.57652 3.14598 4.57652 4.88993C4.57652 5.17489 4.80751 5.40588 5.09246 5.40588H6.35978V7.46197Z" fill="white"/>
</g>
</g>
<g id="Group_3">
<g id="Group_4">
<path id="Vector_2" d="M11.8533 4.37399H10.9144C11.0556 3.32852 11.6337 3.276 11.8997 3.2518C12.1655 3.22761 12.3689 3.00482 12.3689 2.73797V1.19401C12.3689 1.05217 12.3105 0.916529 12.2074 0.819067C12.1043 0.721605 11.9654 0.671094 11.824 0.678885C10.1931 0.77062 8.24902 1.59407 8.24902 4.99611V7.68109C8.24902 8.1293 8.61364 8.49392 9.06185 8.49392H11.8533C12.3015 8.49392 12.6661 8.12924 12.6661 7.68099V5.18681C12.6661 4.7386 12.3015 4.37399 11.8533 4.37399ZM11.6342 7.46202H9.28092V4.99611C9.28092 2.62225 10.3366 1.95926 11.337 1.77212V2.31459C10.6461 2.52489 9.85093 3.14598 9.85093 4.88993C9.85093 5.17489 10.0819 5.40588 10.3669 5.40588H11.6342V7.46202Z" fill="white"/>
</g>
</g>
<g id="Group_5">
<g id="Group_6">
<path id="Vector_3" d="M14.8957 4.8456C14.7998 4.74971 14.6668 4.69455 14.5312 4.69455C14.3956 4.69455 14.2626 4.74971 14.1667 4.8456C14.0708 4.94149 14.0156 5.0745 14.0156 5.21009C14.0156 5.34568 14.0708 5.47869 14.1667 5.57458C14.2626 5.67047 14.3956 5.72563 14.5312 5.72563C14.6668 5.72563 14.7998 5.67047 14.8957 5.57458C14.9915 5.47869 15.0467 5.34568 15.0467 5.21009C15.0467 5.0745 14.9915 4.94149 14.8957 4.8456Z" fill="white"/>
</g>
</g>
<g id="Group_7">
<g id="Group_8">
<path id="Vector_4" d="M17.4348 4.69455H16.7847C16.4997 4.69455 16.2687 4.92554 16.2687 5.2105C16.2687 5.49545 16.4997 5.72644 16.7847 5.72644H17.4348C21.9222 5.72644 25.573 9.37722 25.573 13.8646C25.573 17.6946 22.8567 21.0441 19.114 21.829C18.8751 21.8792 18.704 22.0899 18.704 22.334V25.3318L15.5261 22.1539C15.4294 22.0572 15.2981 22.0028 15.1613 22.0028H9.35853C4.87115 22.0028 1.22037 18.352 1.22037 13.8646C1.22037 12.4816 1.57343 11.116 2.24142 9.91515C2.38001 9.66615 2.29039 9.35199 2.04139 9.21346C1.79235 9.07488 1.47819 9.1645 1.33971 9.41349C0.586529 10.7673 0.188477 12.3065 0.188477 13.8646C0.188477 18.921 4.30211 23.0347 9.35853 23.0347H14.9476L18.8551 26.9422C18.9538 27.0409 19.0858 27.0934 19.2201 27.0934C19.2865 27.0934 19.3536 27.0805 19.4174 27.054C19.6102 26.9742 19.7359 26.7861 19.7359 26.5774V22.7428C21.6028 22.2591 23.2908 21.1827 24.5242 19.6811C25.866 18.0477 26.6049 15.9821 26.6049 13.8646C26.6049 8.80824 22.4913 4.6946 17.4348 4.69455Z" fill="white"/>
</g>
</g>
<g id="Group_9">
<g id="Group_10">
<path id="Vector_5" d="M19.746 9.83475H7.0472C6.76224 9.83475 6.53125 10.0657 6.53125 10.3507C6.53125 10.6357 6.76224 10.8666 7.0472 10.8666H19.746C20.0309 10.8666 20.262 10.6357 20.262 10.3507C20.262 10.0657 20.031 9.83475 19.746 9.83475Z" fill="white"/>
</g>
</g>
<g id="Group_11">
<g id="Group_12">
<path id="Vector_6" d="M19.746 12.5865H7.0472C6.76224 12.5865 6.53125 12.8175 6.53125 13.1025C6.53125 13.3874 6.76224 13.6184 7.0472 13.6184H19.746C20.0309 13.6184 20.262 13.3874 20.262 13.1025C20.262 12.8175 20.031 12.5865 19.746 12.5865Z" fill="white"/>
</g>
</g>
<g id="Group_13">
<g id="Group_14">
<path id="Vector_7" d="M19.746 15.338H7.0472C6.76224 15.338 6.53125 15.5691 6.53125 15.854C6.53125 16.1389 6.76224 16.3699 7.0472 16.3699H19.746C20.0309 16.3699 20.262 16.1389 20.262 15.854C20.262 15.5691 20.031 15.338 19.746 15.338Z" fill="white"/>
</g>
</g>
<g id="Group_15">
<g id="Group_16">
<path id="Vector_8" d="M19.7457 18.0899H12.9769C12.6919 18.0899 12.4609 18.3209 12.4609 18.6059C12.4609 18.8908 12.6919 19.1218 12.9769 19.1218H19.7457C20.0306 19.1218 20.2616 18.8908 20.2616 18.6059C20.2616 18.3209 20.0306 18.0899 19.7457 18.0899Z" fill="white"/>
</g>
</g>
<g id="Group_17">
<g id="Group_18">
<path id="Vector_9" d="M10.0736 18.0898H10.0653C9.78061 18.0898 9.5498 18.3206 9.5498 18.6053C9.5498 18.89 9.78061 19.1209 10.0653 19.1209H10.0736C10.3584 19.1209 10.5892 18.89 10.5892 18.6053C10.5892 18.3206 10.3584 18.0898 10.0736 18.0898Z" fill="white"/>
</g>
</g>
</g>
<defs>
<clipPath id="clip0_137_2422">
<rect width="26.4164" height="26.4164" fill="white" transform="translate(0.188477 0.677185)"/>
</clipPath>
</defs>
</svg>
