<svg width="16" height="16" viewBox="0 0 16 16" fill="none" xmlns="http://www.w3.org/2000/svg">
<g id="settings 1" clip-path="url(#clip0_137_3879)">
<path id="Vector" d="M15.1894 6.58442L14.0536 6.3375C13.9548 6.03511 13.8325 5.74015 13.688 5.45602L14.3168 4.47792C14.4291 4.30316 14.4044 4.07371 14.2576 3.92691L12.4882 2.15741C12.3414 2.01061 12.1119 1.98592 11.9371 2.09822L10.959 2.72703C10.6749 2.58259 10.38 2.46026 10.0776 2.36149L9.83064 1.22565C9.78655 1.0227 9.60683 0.87793 9.39914 0.87793H6.89678C6.68909 0.87793 6.50937 1.0227 6.46528 1.22565L6.21836 2.36149C5.91596 2.46026 5.62101 2.58259 5.33688 2.72703L4.35878 2.09822C4.18402 1.98592 3.95457 2.01061 3.80777 2.15741L2.03827 3.92691C1.89147 4.07371 1.86678 4.30316 1.97908 4.47792L2.60789 5.45602C2.46345 5.74015 2.34112 6.03511 2.24235 6.3375L1.10651 6.58442C0.90356 6.62862 0.758789 6.80823 0.758789 7.01592V9.51828C0.758789 9.72597 0.90356 9.90558 1.10651 9.94978L2.24235 10.1967C2.34112 10.4991 2.46345 10.794 2.60789 11.0782L1.97908 12.0563C1.86678 12.231 1.89147 12.4605 2.03827 12.6073L3.80777 14.3768C3.95457 14.5236 4.18402 14.5483 4.35878 14.436L5.33688 13.8072C5.62101 13.9516 5.91596 14.0739 6.21836 14.1727L6.46528 15.3086C6.50937 15.5115 6.68909 15.6563 6.89678 15.6563H9.39914C9.60683 15.6563 9.78655 15.5115 9.83064 15.3086L10.0776 14.1727C10.38 14.0739 10.6749 13.9516 10.959 13.8072L11.9371 14.436C12.1119 14.5483 12.3414 14.5237 12.4882 14.3768L14.2576 12.6073C14.4044 12.4605 14.4291 12.231 14.3168 12.0563L13.688 11.0782C13.8325 10.794 13.9548 10.4991 14.0536 10.1967L15.1894 9.94978C15.3924 9.90558 15.5371 9.72597 15.5371 9.51828V7.01592C15.5371 6.80823 15.3924 6.62862 15.1894 6.58442ZM10.7975 8.2671C10.7975 9.728 9.60886 10.9166 8.14796 10.9166C6.68706 10.9166 5.49845 9.728 5.49845 8.2671C5.49845 6.8062 6.68706 5.61759 8.14796 5.61759C9.60886 5.61759 10.7975 6.8062 10.7975 8.2671Z" fill="white"/>
</g>
<defs>
<clipPath id="clip0_137_3879">
<rect width="14.7783" height="14.7783" fill="white" transform="translate(0.758789 0.87793)"/>
</clipPath>
</defs>
</svg>
